<svg xmlns="http://www.w3.org/2000/svg" xmlns:xlink="http://www.w3.org/1999/xlink" width="1246" zoomAndPan="magnify" viewBox="0 0 934.5 424.499987" height="566" preserveAspectRatio="xMidYMid meet" version="1.0"><defs><g/><clipPath id="0074056e5d"><path d="M 120.203125 210.195312 L 814.292969 210.195312 L 814.292969 326 L 120.203125 326 Z M 120.203125 210.195312 " clip-rule="nonzero"/></clipPath><clipPath id="59e490510e"><path d="M 120.203125 101.597656 L 814.292969 101.597656 L 814.292969 217.957031 L 120.203125 217.957031 Z M 120.203125 101.597656 " clip-rule="nonzero"/></clipPath><clipPath id="4f30a2e386"><path d="M 120.203125 154.765625 L 814.292969 154.765625 L 814.292969 271 L 120.203125 271 Z M 120.203125 154.765625 " clip-rule="nonzero"/></clipPath></defs><g clip-path="url(#0074056e5d)"><path fill="#000000" d="M 120.203125 210.195312 L 814.292969 210.195312 L 814.292969 325.875 L 120.203125 325.875 Z M 120.203125 210.195312 " fill-opacity="1" fill-rule="nonzero"/></g><path stroke-linecap="butt" transform="matrix(1.009307, 0, 0, 1.009307, 81.644536, 217.169718)" fill="none" stroke-linejoin="miter" d="M 240.337334 34.342678 C 247.710119 34.342678 253.368394 36.150075 257.308287 39.760998 C 261.267531 43.371922 263.245218 48.527066 263.245218 55.222562 C 263.245218 60.416409 262.026096 64.99489 259.583981 68.954134 C 257.161218 72.894027 253.712844 75.963118 249.24273 78.157538 C 244.791967 80.348088 239.663914 81.447233 233.858571 81.447233 L 228.885327 81.447233 L 229.601319 100.001109 L 209.243915 100.001109 L 210.257915 80.754462 L 209.243915 34.443304 Z M 236.703189 67.270584 C 238.514456 66.264325 239.841944 64.971668 240.685654 63.384875 C 241.540975 61.78647 241.97057 59.735249 241.97057 57.227341 C 241.97057 54.258875 241.262318 52.079936 239.841944 50.694394 C 238.425441 49.308853 236.192319 48.550288 233.138708 48.4187 L 229.504563 48.716708 L 229.10593 66.875821 Z M 297.802491 33.231922 C 307.319384 33.231922 314.676688 36.049449 319.870536 41.692242 C 325.083734 47.331166 327.688398 55.280616 327.688398 65.540592 C 327.688398 76.884233 324.836039 85.669652 319.127452 91.88524 C 313.422734 98.104697 305.333956 101.212491 294.861117 101.212491 C 285.328743 101.212491 277.963698 98.360132 272.769851 92.651545 C 267.572134 86.946828 264.97521 78.858049 264.97521 68.38521 C 264.97521 57.169287 267.827569 48.511585 273.536156 42.408235 C 279.240874 36.289403 287.329652 33.231922 297.802491 33.231922 Z M 295.971873 49.4327 C 293.336247 49.4327 291.339209 49.897127 289.984629 50.818242 C 288.633919 51.727746 287.670232 53.32615 287.093568 55.617325 C 286.532385 57.912371 286.249858 61.252379 286.249858 65.637348 C 286.249858 71.245309 286.555606 75.510302 287.167102 78.428454 C 287.774728 81.331126 288.808079 83.359126 290.259415 84.512454 C 291.710751 85.650301 293.854858 86.219225 296.691735 86.219225 C 299.31188 86.219225 301.301178 85.766408 302.651888 84.860774 C 304.006468 83.93579 304.970155 82.310294 305.546819 79.988156 C 306.123483 77.662149 306.41375 74.29505 306.41375 69.8946 C 306.41375 64.367913 306.108002 60.153234 305.496506 57.250562 C 304.88888 54.33241 303.855529 52.30441 302.404193 51.166562 C 300.952857 50.009364 298.80875 49.4327 295.971873 49.4327 Z M 381.809677 83.796461 L 382.920433 85.205225 L 381.709051 100.001109 L 335.498519 100.001109 L 336.512519 80.754462 L 335.498519 34.443304 L 382.498578 34.443304 L 383.613204 35.852067 L 382.301196 50.647952 L 366.197174 50.051936 L 355.759167 50.051936 L 355.561786 59.255341 L 365.577938 59.255341 L 376.116571 58.957333 L 377.231197 60.369966 L 376.019815 75.161981 L 364.2698 74.863973 L 355.139931 74.863973 L 355.039305 78.726462 L 355.236686 84.388606 L 364.985793 84.388606 Z M 436.205743 35.852067 L 435.091117 50.647952 L 421.734958 50.051936 L 420.496484 50.051936 L 420.001095 78.726462 L 420.817713 100.001109 L 400.533844 100.001109 L 401.547844 80.754462 L 401.052455 50.051936 L 399.740447 50.051936 L 386.25657 50.647952 L 385.045189 49.235318 L 386.159815 34.443304 L 435.091117 34.443304 Z M 486.073641 74.171202 C 490.938519 81.725889 495.795656 88.742614 500.645053 95.225247 L 500.347045 97.47772 C 493.454168 99.571514 486.665786 100.817728 479.989642 101.212491 L 478.058397 99.602476 L 476.847016 97.055865 C 476.301314 95.983812 475.22152 93.708117 473.603764 90.228782 C 471.989879 86.749446 470.569505 83.482973 469.350383 80.433233 L 462.54652 80.433233 L 463.266383 100.001109 L 442.905109 100.001109 L 443.919109 80.754462 L 442.905109 34.443304 L 474.002398 34.342678 C 481.375184 34.342678 487.045069 36.084281 491.019794 39.563616 C 495.01387 43.042952 497.007038 48.054898 497.007038 54.603326 C 497.007038 58.446463 496.043351 62.057386 494.112107 65.439966 C 492.200214 68.822546 489.522015 71.732958 486.073641 74.171202 Z M 475.635634 56.631325 C 475.635634 53.929906 474.942863 51.917387 473.557321 50.597639 C 472.171779 49.277891 469.919306 48.550288 466.803772 48.4187 L 463.165757 48.716708 L 462.770994 65.637348 L 470.167001 66.059203 C 472.047932 65.184531 473.425734 64.004111 474.296535 62.521814 C 475.190558 61.020165 475.635634 59.057959 475.635634 56.631325 Z M 539.475058 82.782461 L 540.264585 100.001109 L 520.003937 100.001109 L 521.017937 82.782461 L 520.917311 79.639836 L 499.940671 34.443304 L 521.215319 34.443304 L 522.848555 39.908067 L 530.244563 59.677195 L 531.455944 59.677195 L 539.966577 40.627929 L 542.292585 34.443304 L 562.975088 34.443304 L 539.67244 78.923843 Z M 539.475058 82.782461 " stroke="#ffffff" stroke-width="4.433319" stroke-opacity="1" stroke-miterlimit="4"/><g clip-path="url(#59e490510e)"><path fill="#000000" d="M 120.203125 101.597656 L 814.292969 101.597656 L 814.292969 217.28125 L 120.203125 217.28125 Z M 120.203125 101.597656 " fill-opacity="1" fill-rule="nonzero"/></g><path stroke-linecap="butt" transform="matrix(1.009307, 0, 0, 1.009307, 81.644536, 64.993157)" fill="none" stroke-linejoin="miter" d="M 194.219687 66.257356 C 198.49242 67.476479 201.584733 69.291616 203.496626 71.698898 C 205.42787 74.0907 206.391557 77.206234 206.391557 81.049371 C 206.391557 87.876455 203.604992 92.86518 198.027992 96.015546 C 192.454863 99.150431 184.12613 100.717874 173.041795 100.717874 C 166.907482 100.717874 159.650803 100.47792 151.271758 100.001881 L 152.285758 80.751363 L 151.271758 34.444076 L 180.56552 34.34345 C 187.984749 34.34345 193.790092 35.779305 197.98155 38.647144 C 202.169137 41.518854 204.262931 45.690961 204.262931 51.167334 C 204.262931 54.546044 203.396 57.541601 201.666007 60.146265 C 199.951496 62.735448 197.470679 64.771189 194.219687 66.257356 Z M 183.580428 54.108708 C 183.580428 51.736258 182.756069 50.095281 181.107352 49.185777 C 179.458635 48.280144 176.366322 47.827327 171.830414 47.827327 L 170.91704 47.827327 L 170.518406 61.183487 L 178.115665 61.504716 C 180.012077 60.89709 181.397619 60.014677 182.272291 58.861349 C 183.143092 57.704151 183.580428 56.121227 183.580428 54.108708 Z M 176.904283 87.334623 C 179.671497 87.334623 181.850436 86.730867 183.433359 85.527226 C 185.016283 84.308104 185.80968 82.543279 185.80968 80.232753 C 185.80968 78.684661 185.356863 77.438448 184.447359 76.497982 C 183.541726 75.542035 182.074909 74.725417 180.043039 74.048127 L 170.224269 74.2726 L 170.123643 78.723363 L 170.42165 86.939859 C 173.80036 87.203035 175.963818 87.334623 176.904283 87.334623 Z M 254.715234 84.811233 L 253.503852 100.001881 L 214.488075 100.001881 L 215.502075 80.751363 L 214.488075 34.444076 L 235.170578 34.444076 L 234.055952 78.723363 L 234.257204 83.375378 L 253.600608 83.375378 Z M 317.23878 100.001881 L 296.680125 100.001881 L 294.849506 89.165241 L 294.74888 88.844012 L 284.829484 88.64663 L 276.516232 89.064615 L 274.78624 100.001881 L 254.920356 100.001881 L 274.78624 34.444076 L 299.30414 34.444076 Z M 291.706881 74.048127 L 287.256117 52.576098 L 286.040866 52.576098 L 280.351629 74.048127 L 286.040866 74.171974 Z M 353.928549 33.32945 C 359.733892 33.32945 365.202526 34.235083 370.330579 36.050221 L 366.893816 52.181334 L 365.581808 52.970861 C 363.816984 52.030395 361.788984 51.271831 359.493938 50.695166 C 357.202763 50.118502 355.074137 49.828235 353.111931 49.828235 C 348.990137 49.828235 346.013931 51.031876 344.183313 53.443029 C 342.368176 55.83483 341.462542 59.832777 341.462542 65.440738 C 341.462542 72.004646 342.507504 76.788249 344.601298 79.787676 C 346.698962 82.790974 349.969305 84.292623 354.423938 84.292623 C 356.32035 84.292623 358.433495 84.110722 360.755633 83.74692 C 363.100991 83.367638 365.144472 82.841287 366.893816 82.163997 L 368.527052 83.177997 L 366.893816 99.185263 C 362.833946 100.470179 358.143228 101.112637 352.817793 101.112637 C 341.93084 101.112637 333.733695 98.275759 328.22636 92.602004 C 322.734505 86.928249 319.986642 78.649829 319.986642 67.766746 C 319.986642 56.829479 322.939627 48.361418 328.845596 42.358694 C 334.747695 36.340488 343.11126 33.32945 353.928549 33.32945 Z M 414.621477 65.440738 C 420.837065 75.170493 427.931194 85.271791 435.896125 95.74463 L 435.598117 97.970011 C 428.507858 99.521973 421.754309 100.601767 415.337469 101.213263 L 413.112088 100.001881 C 406.21921 88.174462 400.568676 78.138959 396.164356 69.891501 L 395.966974 78.723363 L 396.783593 100.001881 L 376.426189 100.001881 L 377.440189 80.751363 L 376.426189 34.444076 L 397.0816 34.444076 L 396.388829 61.802723 L 408.955462 41.542075 L 412.396096 34.444076 L 433.868125 34.444076 Z M 468.533764 33.228824 C 478.050657 33.228824 485.404092 36.050221 490.597939 41.689144 C 495.811137 47.331938 498.415801 55.281388 498.415801 65.537494 C 498.415801 76.885005 495.563442 85.666554 489.858725 91.886012 C 484.150138 98.101599 476.061359 101.213263 465.58852 101.213263 C 456.056147 101.213263 448.691101 98.360904 443.497254 92.652317 C 438.303407 86.9476 435.702613 78.854951 435.702613 68.382112 C 435.702613 57.170059 438.558842 48.508487 444.26356 42.409007 C 449.972147 36.290175 458.060925 33.228824 468.533764 33.228824 Z M 466.703146 49.433472 C 464.06365 49.433472 462.066612 49.894029 460.715902 50.819014 C 459.361322 51.724647 458.397635 53.326922 457.820971 55.618098 C 457.259788 57.909273 456.981131 61.24928 456.981131 65.63812 C 456.981131 71.246081 457.283009 75.507203 457.894505 78.429226 C 458.506002 81.331898 459.535482 83.359898 460.986818 84.513226 C 462.438154 85.651073 464.582261 86.219997 467.419139 86.219997 C 470.043154 86.219997 472.028581 85.76718 473.383161 84.861546 C 474.733871 83.936562 475.697558 82.311066 476.274222 79.985058 C 476.854756 77.659051 477.141153 74.295822 477.141153 69.891501 C 477.141153 64.368685 476.835405 60.154006 476.227779 57.251334 C 475.616283 54.333182 474.586802 52.305182 473.135466 51.167334 C 471.684131 50.010136 469.540024 49.433472 466.703146 49.433472 Z M 560.947088 67.66612 L 560.82324 78.107997 C 560.757447 85.542707 558.261149 91.259035 553.326607 95.24924 C 548.395936 99.223965 541.336638 101.213263 532.152586 101.213263 C 523.312983 101.213263 516.540083 99.223965 511.841625 95.24924 C 507.139297 91.259035 504.898434 85.542707 505.111297 78.107997 L 505.409304 67.66612 L 504.790068 34.444076 L 525.174563 34.444076 L 524.261189 75.383356 C 524.195395 78.83173 524.853334 81.331898 526.238876 82.879989 C 527.624418 84.431951 529.869151 85.205997 532.969204 85.205997 C 536.150532 85.205997 538.453318 84.431951 539.869822 82.879989 C 541.290196 81.331898 541.963616 78.83173 541.897822 75.383356 L 540.984448 34.444076 L 561.639859 34.444076 Z M 618.284528 35.852839 L 617.169902 50.644853 L 603.809872 50.052708 L 602.575269 50.052708 L 602.07988 78.723363 L 602.896498 100.001881 L 582.608758 100.001881 L 583.622758 80.751363 L 583.131239 50.052708 L 581.819232 50.052708 L 568.335355 50.644853 L 567.123973 49.23609 L 568.238599 34.444076 L 617.169902 34.444076 Z M 618.284528 35.852839 " stroke="#ffffff" stroke-width="4.433319" stroke-opacity="1" stroke-miterlimit="4"/><g clip-path="url(#4f30a2e386)"><path fill="#000000" d="M 120.203125 154.765625 L 814.292969 154.765625 L 814.292969 270.445312 L 120.203125 270.445312 Z M 120.203125 154.765625 " fill-opacity="1" fill-rule="nonzero"/></g><g fill="#ffffff" fill-opacity="1"><g transform="translate(125.696273, 236.928765)"><g><path d="M 39.640625 -27.28125 C 43.078125 -26.289062 45.570312 -24.828125 47.125 -22.890625 C 48.6875 -20.953125 49.46875 -18.425781 49.46875 -15.3125 C 49.46875 -9.800781 47.210938 -5.773438 42.703125 -3.234375 C 38.203125 -0.691406 31.476562 0.578125 22.53125 0.578125 C 17.5625 0.578125 11.691406 0.382812 4.921875 0 L 5.734375 -15.5625 L 4.921875 -53 L 28.578125 -53.078125 C 34.585938 -53.078125 39.285156 -51.914062 42.671875 -49.59375 C 46.054688 -47.269531 47.75 -43.898438 47.75 -39.484375 C 47.75 -36.753906 47.050781 -34.335938 45.65625 -32.234375 C 44.269531 -30.128906 42.265625 -28.476562 39.640625 -27.28125 Z M 31.046875 -37.109375 C 31.046875 -39.015625 30.375 -40.335938 29.03125 -41.078125 C 27.695312 -41.816406 25.203125 -42.1875 21.546875 -42.1875 L 20.796875 -42.1875 L 20.484375 -31.375 L 26.625 -31.125 C 28.144531 -31.613281 29.257812 -32.320312 29.96875 -33.25 C 30.6875 -34.175781 31.046875 -35.460938 31.046875 -37.109375 Z M 25.640625 -10.234375 C 27.878906 -10.234375 29.640625 -10.722656 30.921875 -11.703125 C 32.203125 -12.691406 32.84375 -14.113281 32.84375 -15.96875 C 32.84375 -17.226562 32.472656 -18.238281 31.734375 -19 C 31.003906 -19.769531 29.816406 -20.425781 28.171875 -20.96875 L 20.234375 -20.796875 L 20.15625 -17.203125 L 20.390625 -10.5625 C 23.117188 -10.34375 24.867188 -10.234375 25.640625 -10.234375 Z M 25.640625 -10.234375 "/></g></g></g><g fill="#ffffff" fill-opacity="1"><g transform="translate(177.209203, 236.928765)"><g><path d="M 37.015625 -12.28125 L 36.03125 0 L 4.5 0 L 5.328125 -15.5625 L 4.5 -53 L 21.21875 -53 L 20.3125 -17.203125 L 20.484375 -13.4375 L 36.125 -13.4375 Z M 37.015625 -12.28125 "/></g></g></g><g fill="#ffffff" fill-opacity="1"><g transform="translate(214.226438, 236.928765)"><g><path d="M 50.53125 0 L 33.90625 0 L 32.4375 -8.765625 L 32.359375 -9.015625 L 24.328125 -9.171875 L 17.609375 -8.84375 L 16.21875 0 L 0.15625 0 L 16.21875 -53 L 36.03125 -53 Z M 29.890625 -20.96875 L 26.296875 -38.328125 L 25.3125 -38.328125 L 20.71875 -20.96875 L 25.3125 -20.890625 Z M 29.890625 -20.96875 "/></g></g></g><g fill="#ffffff" fill-opacity="1"><g transform="translate(265.57557, 236.928765)"><g><path d="M 28.828125 -53.890625 C 33.523438 -53.890625 37.945312 -53.15625 42.09375 -51.6875 L 39.3125 -38.65625 L 38.25 -38 C 36.832031 -38.769531 35.191406 -39.382812 33.328125 -39.84375 C 31.472656 -40.3125 29.753906 -40.546875 28.171875 -40.546875 C 24.835938 -40.546875 22.429688 -39.578125 20.953125 -37.640625 C 19.484375 -35.703125 18.75 -32.46875 18.75 -27.9375 C 18.75 -22.632812 19.59375 -18.769531 21.28125 -16.34375 C 22.976562 -13.914062 25.628906 -12.703125 29.234375 -12.703125 C 30.765625 -12.703125 32.472656 -12.847656 34.359375 -13.140625 C 36.242188 -13.441406 37.894531 -13.867188 39.3125 -14.421875 L 40.625 -13.59375 L 39.3125 -0.65625 C 36.039062 0.382812 32.25 0.90625 27.9375 0.90625 C 19.144531 0.90625 12.519531 -1.382812 8.0625 -5.96875 C 3.613281 -10.5625 1.390625 -17.253906 1.390625 -26.046875 C 1.390625 -34.890625 3.773438 -41.738281 8.546875 -46.59375 C 13.328125 -51.457031 20.085938 -53.890625 28.828125 -53.890625 Z M 28.828125 -53.890625 "/></g></g></g><g fill="#ffffff" fill-opacity="1"><g transform="translate(307.670399, 236.928765)"><g><path d="M 35.796875 -27.9375 C 40.816406 -20.070312 46.550781 -11.90625 53 -3.4375 L 52.75 -1.640625 C 47.007812 -0.378906 41.546875 0.492188 36.359375 0.984375 L 34.5625 0 C 28.988281 -9.550781 24.429688 -17.660156 20.890625 -24.328125 L 20.71875 -17.203125 L 21.375 0 L 4.921875 0 L 5.734375 -15.5625 L 4.921875 -53 L 21.625 -53 L 21.046875 -30.875 L 31.203125 -47.265625 L 33.984375 -53 L 51.359375 -53 Z M 35.796875 -27.9375 "/></g></g></g><g fill="#ffffff" fill-opacity="1"><g transform="translate(359.10143, 236.928765)"><g><path d="M 27.9375 -53.96875 C 35.632812 -53.96875 41.582031 -51.6875 45.78125 -47.125 C 49.988281 -42.570312 52.09375 -36.144531 52.09375 -27.84375 C 52.09375 -18.675781 49.785156 -11.578125 45.171875 -6.546875 C 40.554688 -1.523438 34.019531 0.984375 25.5625 0.984375 C 17.851562 0.984375 11.894531 -1.320312 7.6875 -5.9375 C 3.488281 -10.550781 1.390625 -17.09375 1.390625 -25.5625 C 1.390625 -34.625 3.695312 -41.625 8.3125 -46.5625 C 12.925781 -51.5 19.46875 -53.96875 27.9375 -53.96875 Z M 26.453125 -40.875 C 24.328125 -40.875 22.71875 -40.503906 21.625 -39.765625 C 20.53125 -39.023438 19.75 -37.726562 19.28125 -35.875 C 18.820312 -34.019531 18.59375 -31.316406 18.59375 -27.765625 C 18.59375 -23.234375 18.835938 -19.789062 19.328125 -17.4375 C 19.816406 -15.09375 20.648438 -13.457031 21.828125 -12.53125 C 23.003906 -11.601562 24.738281 -11.140625 27.03125 -11.140625 C 29.15625 -11.140625 30.765625 -11.503906 31.859375 -12.234375 C 32.953125 -12.972656 33.726562 -14.285156 34.1875 -16.171875 C 34.65625 -18.054688 34.890625 -20.773438 34.890625 -24.328125 C 34.890625 -28.804688 34.644531 -32.21875 34.15625 -34.5625 C 33.664062 -36.914062 32.832031 -38.554688 31.65625 -39.484375 C 30.476562 -40.410156 28.742188 -40.875 26.453125 -40.875 Z M 26.453125 -40.875 "/></g></g></g><g fill="#ffffff" fill-opacity="1"><g transform="translate(412.579866, 236.928765)"><g><path d="M 49.140625 -26.125 L 49.0625 -17.6875 C 49.007812 -11.6875 46.988281 -7.070312 43 -3.84375 C 39.007812 -0.625 33.300781 0.984375 25.875 0.984375 C 18.726562 0.984375 13.253906 -0.625 9.453125 -3.84375 C 5.660156 -7.070312 3.847656 -11.6875 4.015625 -17.6875 L 4.265625 -26.125 L 3.765625 -53 L 20.234375 -53 L 19.5 -19.90625 C 19.4375 -17.113281 19.960938 -15.085938 21.078125 -13.828125 C 22.203125 -12.578125 24.019531 -11.953125 26.53125 -11.953125 C 29.101562 -11.953125 30.960938 -12.578125 32.109375 -13.828125 C 33.253906 -15.085938 33.800781 -17.113281 33.75 -19.90625 L 33.015625 -53 L 49.71875 -53 Z M 49.140625 -26.125 "/></g></g></g><g fill="#ffffff" fill-opacity="1"><g transform="translate(466.058303, 236.928765)"><g><path d="M 42.015625 -51.84375 L 41.109375 -39.890625 L 30.3125 -40.375 L 29.328125 -40.375 L 28.90625 -17.203125 L 29.5625 0 L 13.1875 0 L 14 -15.5625 L 13.59375 -40.375 L 12.53125 -40.375 L 1.640625 -39.890625 L 0.65625 -41.03125 L 1.5625 -53 L 41.109375 -53 Z M 42.015625 -51.84375 "/></g></g></g><g fill="#ffffff" fill-opacity="1"><g transform="translate(508.562613, 236.928765)"><g/></g></g><g fill="#ffffff" fill-opacity="1"><g transform="translate(519.618672, 236.928765)"><g><path d="M 30.0625 -53.078125 C 36.007812 -53.078125 40.582031 -51.613281 43.78125 -48.6875 C 46.976562 -45.769531 48.578125 -41.609375 48.578125 -36.203125 C 48.578125 -31.992188 47.59375 -28.289062 45.625 -25.09375 C 43.65625 -21.90625 40.867188 -19.421875 37.265625 -17.640625 C 33.660156 -15.867188 29.507812 -14.984375 24.8125 -14.984375 L 20.796875 -14.984375 L 21.375 0 L 4.921875 0 L 5.734375 -15.5625 L 4.921875 -53 Z M 27.109375 -26.453125 C 28.585938 -27.273438 29.664062 -28.328125 30.34375 -29.609375 C 31.03125 -30.890625 31.375 -32.539062 31.375 -34.5625 C 31.375 -36.96875 30.800781 -38.726562 29.65625 -39.84375 C 28.507812 -40.96875 26.707031 -41.582031 24.25 -41.6875 L 21.296875 -41.4375 L 20.96875 -26.78125 Z M 27.109375 -26.453125 "/></g></g></g><g fill="#ffffff" fill-opacity="1"><g transform="translate(568.183335, 236.928765)"><g><path d="M 27.9375 -53.96875 C 35.632812 -53.96875 41.582031 -51.6875 45.78125 -47.125 C 49.988281 -42.570312 52.09375 -36.144531 52.09375 -27.84375 C 52.09375 -18.675781 49.785156 -11.578125 45.171875 -6.546875 C 40.554688 -1.523438 34.019531 0.984375 25.5625 0.984375 C 17.851562 0.984375 11.894531 -1.320312 7.6875 -5.9375 C 3.488281 -10.550781 1.390625 -17.09375 1.390625 -25.5625 C 1.390625 -34.625 3.695312 -41.625 8.3125 -46.5625 C 12.925781 -51.5 19.46875 -53.96875 27.9375 -53.96875 Z M 26.453125 -40.875 C 24.328125 -40.875 22.71875 -40.503906 21.625 -39.765625 C 20.53125 -39.023438 19.75 -37.726562 19.28125 -35.875 C 18.820312 -34.019531 18.59375 -31.316406 18.59375 -27.765625 C 18.59375 -23.234375 18.835938 -19.789062 19.328125 -17.4375 C 19.816406 -15.09375 20.648438 -13.457031 21.828125 -12.53125 C 23.003906 -11.601562 24.738281 -11.140625 27.03125 -11.140625 C 29.15625 -11.140625 30.765625 -11.503906 31.859375 -12.234375 C 32.953125 -12.972656 33.726562 -14.285156 34.1875 -16.171875 C 34.65625 -18.054688 34.890625 -20.773438 34.890625 -24.328125 C 34.890625 -28.804688 34.644531 -32.21875 34.15625 -34.5625 C 33.664062 -36.914062 32.832031 -38.554688 31.65625 -39.484375 C 30.476562 -40.410156 28.742188 -40.875 26.453125 -40.875 Z M 26.453125 -40.875 "/></g></g></g><g fill="#ffffff" fill-opacity="1"><g transform="translate(621.661772, 236.928765)"><g><path d="M 42.34375 -13.109375 L 43.25 -11.953125 L 42.265625 0 L 4.921875 0 L 5.734375 -15.5625 L 4.921875 -53 L 42.921875 -53 L 43.8125 -51.84375 L 42.75 -39.890625 L 29.734375 -40.375 L 21.296875 -40.375 L 21.125 -32.921875 L 29.234375 -32.921875 L 37.765625 -33.171875 L 38.65625 -32.03125 L 37.671875 -20.0625 L 28.171875 -20.3125 L 20.796875 -20.3125 L 20.71875 -17.203125 L 20.890625 -12.609375 L 28.75 -12.609375 Z M 42.34375 -13.109375 "/></g></g></g><g fill="#ffffff" fill-opacity="1"><g transform="translate(665.967804, 236.928765)"><g><path d="M 42.015625 -51.84375 L 41.109375 -39.890625 L 30.3125 -40.375 L 29.328125 -40.375 L 28.90625 -17.203125 L 29.5625 0 L 13.1875 0 L 14 -15.5625 L 13.59375 -40.375 L 12.53125 -40.375 L 1.640625 -39.890625 L 0.65625 -41.03125 L 1.5625 -53 L 41.109375 -53 Z M 42.015625 -51.84375 "/></g></g></g><g fill="#ffffff" fill-opacity="1"><g transform="translate(708.472137, 236.928765)"><g><path d="M 39.8125 -20.890625 C 43.738281 -14.773438 47.664062 -9.09375 51.59375 -3.84375 L 51.359375 -2.046875 C 45.785156 -0.359375 40.296875 0.648438 34.890625 0.984375 L 33.328125 -0.328125 L 32.359375 -2.375 C 31.921875 -3.25 31.046875 -5.09375 29.734375 -7.90625 C 28.421875 -10.71875 27.273438 -13.351562 26.296875 -15.8125 L 20.796875 -15.8125 L 21.375 0 L 4.921875 0 L 5.734375 -15.5625 L 4.921875 -53 L 30.0625 -53.078125 C 36.007812 -53.078125 40.59375 -51.671875 43.8125 -48.859375 C 47.039062 -46.046875 48.65625 -41.988281 48.65625 -36.6875 C 48.65625 -33.582031 47.875 -30.660156 46.3125 -27.921875 C 44.757812 -25.191406 42.59375 -22.847656 39.8125 -20.890625 Z M 31.375 -35.0625 C 31.375 -37.238281 30.8125 -38.859375 29.6875 -39.921875 C 28.570312 -40.992188 26.757812 -41.582031 24.25 -41.6875 L 21.296875 -41.4375 L 20.96875 -27.765625 L 26.953125 -27.4375 C 28.472656 -28.144531 29.585938 -29.097656 30.296875 -30.296875 C 31.015625 -31.503906 31.375 -33.09375 31.375 -35.0625 Z M 31.375 -35.0625 "/></g></g></g><g fill="#ffffff" fill-opacity="1"><g transform="translate(760.148874, 236.928765)"><g><path d="M 31.28125 -13.921875 L 31.9375 0 L 15.5625 0 L 16.375 -13.921875 L 16.296875 -16.46875 L -0.65625 -53 L 16.546875 -53 L 17.859375 -48.578125 L 23.828125 -32.59375 L 24.8125 -32.59375 L 31.703125 -48 L 33.578125 -53 L 50.296875 -53 L 31.453125 -17.03125 Z M 31.28125 -13.921875 "/></g></g></g></svg>
