<?xml version="1.0" standalone="no"?>
<!DOCTYPE svg PUBLIC "-//W3C//DTD SVG 1.1//EN" "http://www.w3.org/Graphics/SVG/1.1/DTD/svg11.dtd"><svg xmlns="http://www.w3.org/2000/svg" style="background-color:#FFF" width="1280" height="562"><path stroke="black" fill="none" stroke-width="1" d="M291.061, 196.312L291.061, 194.671L296.686, 194.311L296.686, 146.281L291.061, 145.921L291.061, 144.281L310.577, 144.281L313.56, 144.356L316.264, 144.577L318.826, 144.987L321.358, 145.655L323.67, 146.563L325.577, 147.718L327.111, 149.191L328.311, 151.078L329.095, 153.352L329.358, 155.983L329.112, 158.121L328.374, 160.093L327.255, 161.812L325.874, 163.218L324.233, 164.387L322.342, 165.421L318.483, 166.89L314.764, 167.655L314.764, 167.795L318.303, 168.011L321.546, 168.655L324.444, 169.722L326.952, 171.202L329.025, 173.136L330.592, 175.592L331.577, 178.488L331.905, 181.765L331.619, 184.746L330.765, 187.405L329.447, 189.679L327.749, 191.53L325.686, 193.035L323.279, 194.265L320.654, 195.207L317.936, 195.843L315.047, 196.199L312.139, 196.312L291.061, 196.312"/><path stroke="black" fill="none" stroke-width="1" d="M306.014, 193.937L306.014, 169.405L309.374, 169.155L312.217, 169.359L314.735, 169.972L316.928, 170.993L318.796, 172.421L320.285, 174.229L321.35, 176.403L321.989, 178.94L322.202, 181.842L321.996, 184.569L321.377, 186.997L320.346, 189.124L318.905, 190.952L317.1, 192.423L314.982, 193.473L312.552, 194.102L309.811, 194.312L307.948, 194.218L306.014, 193.937"/><path stroke="black" fill="none" stroke-width="1" d="M306.014, 166.921L306.014, 146.655L307.948, 146.374L309.811, 146.28L312.194, 146.444L314.252, 146.936L315.984, 147.757L317.389, 148.905L318.476, 150.346L319.253, 152.042L319.719, 153.995L319.874, 156.202L319.701, 158.766L319.183, 160.988L318.32, 162.868L317.112, 164.406L315.558, 165.602L313.659, 166.457L311.416, 166.969L308.827, 167.14L306.014, 166.921"/><path stroke="black" fill="none" stroke-width="1" d="M338.254, 196.312L338.254, 194.671L343.879, 194.311L343.879, 146.281L338.254, 145.921L338.254, 144.281L358.817, 144.281L358.817, 145.921L353.207, 146.281L353.207, 193.937L355.941, 194.116L358.206, 194.242L360.004, 194.318L361.333, 194.343L364.848, 194.233L367.614, 193.765L368.777, 193.386L369.739, 192.999L370.573, 192.48L371.364, 191.733L372.598, 190.062L373.151, 188.848L373.848, 186.858L374.565, 184.309L375.192, 181.437L376.442, 181.437L376.442, 196.312L338.254, 196.312"/><path stroke="black" fill="none" stroke-width="1" d="M378.343, 196.312L378.343, 194.671L382.749, 194.311L399.999, 142.781L401.639, 142.781L419.468, 194.311L424.28, 194.671L424.28, 196.311L404.78, 196.311L404.78, 194.671L409.702, 194.311L405.39, 181.218L389.062, 181.218L384.827, 194.312L389.749, 194.671L389.749, 196.311L378.343, 196.312"/><path stroke="black" fill="none" stroke-width="1" d="M389.718, 179.03L404.593, 178.733L397.296, 156.343L397.156, 156.343L389.718, 179.03"/><path stroke="black" fill="none" stroke-width="1" d="M427.692, 171.233L427.91, 167.215L428.567, 163.249L429.709, 159.346L431.348, 155.624L433.481, 152.164L436.036, 149.155L437.501, 147.828L439.13, 146.641L440.923, 145.594L442.88, 144.687L444.975, 143.949L447.171, 143.421L449.467, 143.105L451.864, 142.999L454.622, 143.194L457.211, 143.781L459.63, 144.757L461.88, 146.124L463.779, 147.751L465.137, 149.523L465.951, 151.438L466.223, 153.499L465.879, 155.5L464.848, 157.187L464.105, 157.858L463.235, 158.336L462.237, 158.622L461.114, 158.717L460.04, 158.629L459.07, 158.366L458.204, 157.927L457.442, 157.312L456.819, 156.563L456.375, 155.723L456.109, 154.79L456.02, 153.765L456.355, 151.814L457.364, 150.202L458.876, 149.125L460.724, 148.765L461.302, 148.795L461.302, 148.655L460.91, 148.132L460.288, 147.574L459.434, 146.983L458.348, 146.358L457.083, 145.799L455.694, 145.399L454.184, 145.158L452.552, 145.078L450.928, 145.186L449.379, 145.509L447.904, 146.047L446.504, 146.8L445.178, 147.769L443.926, 148.953L442.748, 150.353L441.645, 151.968L439.779, 155.69L438.446, 159.965L437.647, 164.792L437.38, 170.171L437.591, 174.887L438.223, 179.343L439.27, 183.465L440.723, 187.203L441.621, 188.879L442.663, 190.375L443.848, 191.691L445.177, 192.827L446.633, 193.744L448.188, 194.399L449.843, 194.791L451.598, 194.921L454.108, 194.729L456.45, 194.152L458.624, 193.19L460.63, 191.843L462.444, 190.196L464.043, 188.333L465.428, 186.252L466.598, 183.953L468.302, 184.749L466.89, 187.759L465.255, 190.368L463.397, 192.576L461.317, 194.382L459.014, 195.787L456.489, 196.79L453.741, 197.392L450.77, 197.593L448.167, 197.499L445.719, 197.218L443.425, 196.749L441.286, 196.093L439.323, 195.284L437.559, 194.355L435.995, 193.307L434.63, 192.14L432.328, 189.414L430.49, 186.17L429.156, 182.688L428.286, 179.062L427.84, 175.3L427.692, 171.233"/><path stroke="black" fill="none" stroke-width="1" d="M472.906, 196.312L472.906, 194.671L478.531, 194.311L478.531, 146.281L472.906, 145.921L472.906, 144.281L493.469, 144.281L493.469, 145.921L487.859, 146.281L487.859, 168.452L487.937, 168.452L508.609, 146.28L503.906, 145.92L503.906, 144.28L515.719, 144.28L515.719, 145.92L511.453, 146.28L494.5, 164.187L517.656, 194.312L521.594, 194.671L521.594, 196.311L500.766, 196.311L500.766, 194.671L505.469, 194.311L487.937, 170.358L487.859, 170.358L487.859, 194.312L493.469, 194.671L493.469, 196.311L472.906, 196.312"/><path stroke="black" fill="none" stroke-width="1" d="M524.553, 170.468L524.721, 166.793L525.224, 163.282L526.064, 159.934L527.24, 156.749L528.749, 153.801L530.575, 151.157L532.718, 148.816L535.178, 146.78L537.893, 145.126L540.806, 143.945L543.917, 143.236L547.225, 143L549.732, 143.113L552.115, 143.454L554.374, 144.021L556.508, 144.816L558.519, 145.837L560.405, 147.086L562.166, 148.562L563.803, 150.265L565.278, 152.149L566.557, 154.175L567.639, 156.342L568.525, 158.65L569.214, 161.099L569.706, 163.69L570.001, 166.422L570.1, 169.295L569.888, 173.49L569.24, 177.64L568.144, 181.57L566.553, 185.327L564.54, 188.726L562.131, 191.671L560.751, 192.956L559.224, 194.103L557.549, 195.112L555.725, 195.983L553.783, 196.686L551.756, 197.189L549.643, 197.492L547.444, 197.593L544.846, 197.477L542.391, 197.128L540.079, 196.548L537.91, 195.734L535.884, 194.689L534.001, 193.41L532.26, 191.899L530.662, 190.155L529.23, 188.221L527.989, 186.136L526.938, 183.901L526.079, 181.515L525.411, 178.979L524.934, 176.292L524.647, 173.455L524.552, 170.468L524.553, 170.468"/><path stroke="black" fill="none" stroke-width="1" d="M534.319, 169.655L534.494, 164.82L535.022, 160.437L535.86, 156.613L536.944, 153.452L538.262, 150.851L539.819, 148.702L541.56, 147.032L543.412, 145.89L545.381, 145.234L547.444, 145.015L548.917, 145.111L550.307, 145.4L551.615, 145.881L552.84, 146.555L553.982, 147.421L555.042, 148.479L556.018, 149.729L556.912, 151.171L557.71, 152.806L558.402, 154.631L558.988, 156.648L559.467, 158.855L559.84, 161.254L560.106, 163.843L560.266, 166.622L560.319, 169.593L560.101, 175.185L559.447, 180.195L558.358, 184.623L556.835, 188.467L555.922, 190.134L554.927, 191.579L553.849, 192.801L552.689, 193.801L551.446, 194.578L550.122, 195.133L548.715, 195.466L547.225, 195.577L545.239, 195.354L543.395, 194.683L541.693, 193.565L540.131, 191.999L538.742, 190.066L537.547, 187.86L536.547, 185.379L535.74, 182.625L535.118, 179.647L534.674, 176.493L534.408, 173.162L534.319, 169.655"/><path stroke="black" fill="none" stroke-width="1" d="M575.825, 145.92L575.825, 144.28L596.387, 144.28L596.387, 145.92L590.747, 146.28L590.747, 180.343L590.809, 183.015L591.153, 185.795L591.488, 187.317L591.934, 188.625L592.559, 189.849L593.404, 191.108L594.44, 192.259L595.669, 193.202L597.149, 193.946L598.966, 194.546L601.074, 194.945L603.434, 195.077L606.25, 194.847L608.731, 194.155L610.824, 193.077L612.481, 191.718L613.801, 190.059L614.856, 188.078L615.641, 185.93L616.153, 183.702L616.434, 181.382L616.528, 178.89L616.528, 146.28L610.934, 145.92L610.934, 144.28L624.434, 144.28L624.434, 145.92L618.856, 146.28L618.856, 179.687L618.751, 182.246L618.434, 184.671L617.837, 187.043L616.887, 189.468L615.593, 191.73L613.966, 193.64L611.875, 195.208L609.169, 196.468L605.941, 197.312L602.262, 197.593L598.43, 197.444L595.028, 196.999L592.093, 196.331L589.668, 195.483L587.653, 194.394L585.95, 193.03L584.571, 191.535L583.528, 190.046L582.745, 188.405L582.153, 186.483L581.754, 184.519L581.528, 182.749L581.403, 178.843L581.403, 146.28L575.825, 145.92"/><path stroke="black" fill="none" stroke-width="1" d="M628.857, 162.155L629.217, 144.28L669.045, 144.28L669.405, 162.108L667.405, 162.108L666.498, 157.593L665.576, 153.983L665.016, 152.293L664.436, 151.03L663.014, 148.92L662.122, 148.004L661.107, 147.374L658.607, 146.562L657.075, 146.328L655.327, 146.249L654.717, 146.265L653.904, 146.28L653.904, 194.312L659.561, 194.671L659.561, 196.311L638.998, 196.311L638.998, 194.671L644.576, 194.311L644.357, 146.327L643.529, 146.312L642.936, 146.28L641.384, 146.327L640.014, 146.468L637.686, 147.171L635.889, 148.265L635.15, 148.973L634.467, 149.937L633.357, 152.046L632.891, 153.254L632.404, 154.843L632.125, 155.964L631.774, 157.556L631.351, 159.62L630.857, 162.155L628.857, 162.155"/><path stroke="black" fill="none" stroke-width="1" d="M343.016, 258.782L343.016, 257.142L348.641, 256.782L348.641, 208.751L343.016, 208.391L343.016, 206.751L362.812, 206.751L366.674, 206.967L370.234, 207.611L373.472, 208.689L376.375, 210.204L377.674, 211.137L378.832, 212.23L379.836, 213.465L380.672, 214.829L381.349, 216.332L381.832, 217.947L382.122, 219.675L382.219, 221.517L381.921, 224.846L381.031, 227.829L379.636, 230.412L377.828, 232.532L375.619, 234.267L373, 235.688L370.07, 236.782L367.031, 237.517L363.78, 237.939L360.344, 238.079L359.366, 238.061L357.969, 238.001L357.969, 256.782L363.579, 257.142L363.579, 258.782L343.016, 258.782"/><path stroke="black" fill="none" stroke-width="1" d="M357.969, 235.922L357.968, 209.267L359.972, 209.044L361.828, 208.969L364.069, 209.122L366.047, 209.579L367.825, 210.383L369.391, 211.548L370.726, 213.193L371.703, 215.408L372.312, 218.167L372.516, 221.438L372.329, 224.859L371.769, 227.824L370.835, 230.332L369.528, 232.384L367.847, 233.98L365.792, 235.12L363.364, 235.804L360.562, 236.032L357.969, 235.922"/><path stroke="black" fill="none" stroke-width="1" d="M388.318, 232.938L388.486, 229.264L388.989, 225.752L389.829, 222.404L391.005, 219.22L392.514, 216.272L394.34, 213.628L396.483, 211.287L398.943, 209.251L401.658, 207.597L404.571, 206.416L407.682, 205.706L410.99, 205.47L413.497, 205.584L415.88, 205.924L418.139, 206.492L420.273, 207.286L422.284, 208.308L424.17, 209.557L425.931, 211.032L427.568, 212.735L429.043, 214.619L430.322, 216.645L431.404, 218.812L432.29, 221.12L432.979, 223.57L433.471, 226.161L433.766, 228.893L433.865, 231.767L433.653, 235.961L433.005, 240.11L431.909, 244.04L430.318, 247.798L428.305, 251.197L425.896, 254.142L424.516, 255.426L422.989, 256.573L421.314, 257.583L419.49, 258.454L417.548, 259.157L415.52, 259.66L413.407, 259.963L411.208, 260.064L408.611, 259.948L406.156, 259.599L403.844, 259.019L401.675, 258.205L399.649, 257.16L397.766, 255.881L396.026, 254.37L394.428, 252.626L392.995, 250.692L391.754, 248.607L390.704, 246.372L389.845, 243.986L389.177, 241.45L388.7, 238.763L388.413, 235.926L388.318, 232.938"/><path stroke="black" fill="none" stroke-width="1" d="M398.083, 232.126L398.259, 227.291L398.787, 222.907L399.624, 219.084L400.708, 215.923L402.027, 213.322L403.583, 211.173L405.325, 209.503L407.178, 208.36L409.146, 207.704L411.208, 207.485L412.681, 207.581L414.072, 207.87L415.38, 208.352L416.605, 209.025L417.747, 209.891L418.807, 210.949L419.783, 212.2L420.677, 213.642L421.475, 215.277L422.167, 217.102L422.752, 219.119L423.231, 221.326L423.604, 223.724L423.87, 226.313L424.03, 229.093L424.083, 232.063L423.865, 237.656L423.212, 242.666L422.123, 247.093L420.6, 250.938L419.687, 252.605L418.692, 254.05L417.614, 255.272L416.454, 256.272L415.211, 257.049L413.887, 257.604L412.48, 257.937L410.99, 258.048L409.004, 257.824L407.16, 257.154L405.458, 256.036L403.896, 254.47L402.507, 252.537L401.312, 250.33L400.312, 247.849L399.505, 245.095L398.882, 242.118L398.438, 238.963L398.172, 235.633L398.083, 232.126"/><path stroke="black" fill="none" stroke-width="1" d="M440.465, 258.782L440.465, 257.142L446.09, 256.782L446.09, 208.751L440.465, 208.391L440.465, 206.751L476.387, 206.751L476.747, 221.595L475.215, 221.595L474.761, 219.298L474.277, 217.376L473.666, 215.597L472.871, 213.892L471.886, 212.323L470.746, 211.11L469.351, 210.162L467.606, 209.407L465.545, 208.915L463.184, 208.751L461.538, 208.774L459.695, 208.845L457.655, 208.962L455.418, 209.126L455.418, 230.782L456.075, 230.83L456.955, 230.865L458.059, 230.885L459.387, 230.892L461.163, 230.775L462.667, 230.423L463.899, 229.837L464.856, 229.017L465.573, 227.886L466.086, 226.368L466.393, 224.464L466.496, 222.173L468.512, 222.173L468.512, 241.751L466.496, 241.751L466.392, 239.463L466.081, 237.55L465.563, 236.01L464.84, 234.845L463.877, 233.991L462.648, 233.381L461.151, 233.014L459.387, 232.892L458.089, 232.899L456.995, 232.92L456.105, 232.954L455.418, 233.001L455.418, 256.407L464.684, 256.782L466.699, 256.697L468.464, 256.438L469.995, 255.97L471.309, 255.282L472.397, 254.457L473.356, 253.485L474.147, 252.334L474.84, 250.907L475.871, 247.782L476.284, 246.025L476.715, 243.907L478.277, 243.907L477.887, 258.782L440.465, 258.782"/><path stroke="black" fill="none" stroke-width="1" d="M484.564, 224.626L484.924, 206.751L524.752, 206.751L525.111, 224.579L523.111, 224.579L522.205, 220.063L521.283, 216.454L520.723, 214.763L520.143, 213.501L518.72, 211.391L517.829, 210.475L516.814, 209.845L514.314, 209.032L512.782, 208.798L511.033, 208.72L510.423, 208.735L509.611, 208.751L509.611, 256.782L515.267, 257.142L515.267, 258.782L494.705, 258.782L494.705, 257.142L500.283, 256.782L500.064, 208.798L499.236, 208.782L498.642, 208.751L497.09, 208.798L495.72, 208.938L493.392, 209.642L491.595, 210.735L490.857, 211.444L490.173, 212.407L489.064, 214.517L488.598, 215.725L488.111, 217.313L487.832, 218.434L487.481, 220.026L487.058, 222.09L486.564, 224.626L484.564, 224.626"/><path stroke="black" fill="none" stroke-width="1" d="M530.403, 258.782L530.403, 257.142L536.028, 256.782L536.028, 208.751L530.403, 208.391L530.403, 206.751L549.84, 206.751L553.69, 206.927L557.153, 207.454L560.241, 208.346L562.981, 209.642L565.266, 211.389L566.965, 213.657L567.581, 214.981L568.02, 216.423L568.284, 217.981L568.372, 219.657L568.109, 222.603L567.321, 225.205L566.007, 227.463L564.169, 229.376L561.889, 230.965L559.238, 232.244L556.217, 233.215L552.825, 233.876L552.825, 233.954L555.678, 234.218L558.122, 234.938L560.141, 236.025L561.7, 237.376L563.007, 239.06L564.247, 241.173L564.687, 242.084L565.211, 243.205L565.819, 244.537L566.512, 246.079L567.992, 249.19L569.465, 251.923L570.652, 253.768L571.903, 255.142L573.08, 256.052L574.059, 256.532L576.059, 256.782L576.059, 258.782L570.012, 258.782L567.523, 258.697L565.622, 258.438L564.028, 257.854L562.434, 256.782L560.936, 255.22L559.606, 253.157L558.879, 251.679L557.933, 249.572L556.769, 246.835L555.387, 243.47L554.122, 240.642L553.36, 239.118L552.7, 238.017L551.278, 236.142L550.452, 235.298L549.606, 234.735L548.724, 234.419L547.794, 234.313L546.388, 234.325L545.356, 234.36L545.356, 256.782L550.966, 257.142L550.966, 258.782L530.403, 258.782"/><path stroke="black" fill="none" stroke-width="1" d="M545.356, 232.282L545.356, 209.079L547.268, 208.868L548.856, 208.798L550.89, 208.927L552.684, 209.313L554.306, 210.003L555.747, 211.017L556.971, 212.467L557.871, 214.407L558.433, 216.834L558.621, 219.735L558.456, 222.675L557.96, 225.226L557.135, 227.386L555.981, 229.157L554.419, 230.539L552.378, 231.525L549.857, 232.116L546.856, 232.313L545.933, 232.307L545.356, 232.282"/><path stroke="black" fill="none" stroke-width="1" d="M573.851, 208.392L573.851, 206.751L595.242, 206.751L595.242, 208.391L589.602, 208.751L601.882, 230.891L602.07, 230.891L612.351, 208.751L607.211, 208.391L607.211, 206.751L619.351, 206.751L619.351, 208.391L614.836, 208.751L603.446, 233.157L603.446, 256.782L609.07, 257.142L609.07, 258.782L588.54, 258.782L588.54, 257.142L594.118, 256.782L594.118, 235.298L578.774, 208.751L573.851, 208.392"/><path stroke="black" fill="none" stroke-width="1" d="M77, 186.05L883.79, 186.05L883.79, 216.05L77, 216.05"/><path stroke="black" fill="none" stroke-width="1" d="M396.582, 205.056L396.296, 206.47L395.441, 207.618L394.739, 208.11L393.87, 208.462L392.833, 208.673L391.628, 208.743L384.8, 208.743L384.8, 208.353L385.835, 208.248L386.41, 207.993L386.679, 207.459L386.77, 206.509L386.77, 197.431L386.683, 196.51L386.425, 195.993L385.855, 195.736L384.8, 195.587L384.8, 195.197L390.535, 195.197L392.879, 195.415L394.554, 196.069L395.56, 197.158L395.895, 198.681L395.687, 199.858L395.066, 200.728L394.24, 201.24L393.082, 201.618L393.972, 201.865L394.612, 202.103L395.582, 202.743L396.331, 203.799L396.582, 205.056"/><path stroke="black" fill="none" stroke-width="1" d="M394.238, 205.087L393.925, 206.511L392.988, 207.463L391.808, 207.861L390.144, 207.993L389.503, 207.951L389.113, 207.822L388.912, 207.561L388.847, 207.15L388.847, 202.072L390.083, 202.097L391.108, 202.174L391.92, 202.3L392.519, 202.477L393.271, 202.911L393.808, 203.491L394.13, 204.216L394.238, 205.087"/><path stroke="black" fill="none" stroke-width="1" d="M393.8, 198.759L393.601, 199.827L393.003, 200.619L392.06, 201.1L390.8, 201.259L388.847, 201.259L388.847, 196.572L388.959, 196.114L389.3, 195.962L390.207, 195.962L391.748, 196.143L392.878, 196.681L393.569, 197.56L393.8, 198.759"/><path stroke="black" fill="none" stroke-width="1" d="M410.325, 205.18L409.341, 208.743L398.341, 208.743L398.341, 208.353L399.267, 208.213L399.794, 207.947L400.04, 207.417L400.122, 206.509L400.122, 197.431L400.04, 196.54L399.794, 196.025L399.273, 195.751L398.341, 195.587L398.341, 195.197L404.106, 195.197L404.106, 195.587L403.113, 195.744L402.544, 196.025L402.286, 196.54L402.2, 197.431L402.2, 207.103L402.277, 207.542L402.513, 207.79L403.04, 207.908L403.966, 207.947L405.326, 207.947L406.511, 207.869L407.508, 207.635L408.316, 207.245L408.935, 206.697L409.347, 206.093L409.81, 205.181L410.325, 205.18"/><path stroke="black" fill="none" stroke-width="1" d="M425.018, 208.743L419.799, 208.743L419.799, 208.353L420.509, 208.306L420.955, 208.165L421.237, 207.681L421.138, 207.093L420.847, 206.291L420.002, 204.321L414.643, 204.321L413.705, 206.712L413.549, 207.509L413.636, 207.878L413.896, 208.142L414.33, 208.3L414.939, 208.353L414.939, 208.743L410.893, 208.743L410.893, 208.353L411.544, 208.194L412.033, 207.775L412.272, 207.397L412.584, 206.807L412.968, 206.006L413.424, 204.993L417.674, 194.963L418.08, 194.963L423.174, 206.572L423.649, 207.515L424.018, 208.025L424.423, 208.256L425.018, 208.353L425.018, 208.743"/><path stroke="black" fill="none" stroke-width="1" d="M419.721, 203.493L415.002, 203.493L417.346, 197.868L419.721, 203.493"/><path stroke="black" fill="none" stroke-width="1" d="M438.292, 206.43L437.209, 207.542L435.886, 208.353L434.368, 208.856L432.698, 209.025L431.248, 208.906L429.945, 208.549L428.788, 207.953L427.777, 207.118L426.962, 206.09L426.381, 204.912L426.033, 203.583L425.917, 202.103L426.066, 200.408L426.515, 198.916L427.262, 197.626L428.307, 196.54L429.317, 195.83L430.393, 195.322L431.536, 195.017L432.745, 194.915L434.251, 195.04L435.745, 195.415L436.573, 195.587L437.107, 195.419L437.402, 194.915L437.839, 194.915L438.027, 199.54L437.542, 199.54L437.256, 198.659L436.964, 198.009L436.198, 196.978L434.81, 196.041L433.152, 195.728L432.09, 195.833L431.142, 196.146L430.308, 196.669L429.589, 197.4L429.015, 198.299L428.605, 199.339L428.359, 200.518L428.277, 201.837L428.395, 203.534L428.749, 204.966L429.339, 206.135L430.167, 207.04L431.62, 207.861L433.355, 208.134L434.547, 208.005L435.705, 207.619L436.828, 206.974L437.917, 206.072L438.292, 206.43"/><path stroke="black" fill="none" stroke-width="1" d="M453.755, 208.743L447.52, 208.743L447.52, 208.353L448.098, 208.337L448.742, 208.201L448.958, 207.884L448.771, 207.362L448.208, 206.54L447.356, 205.514L446.301, 204.4L444.13, 202.259L443.598, 202.697L443.598, 206.509L443.68, 207.435L443.926, 207.962L444.469, 208.217L445.442, 208.352L445.442, 208.743L439.676, 208.743L439.676, 208.353L440.655, 208.206L441.192, 207.915L441.426, 207.33L441.505, 206.29L441.505, 197.43L441.423, 196.54L441.176, 196.025L440.638, 195.744L439.676, 195.587L439.676, 195.197L445.473, 195.197L445.473, 195.587L444.456, 195.736L443.911, 195.993L443.675, 196.51L443.598, 197.431L443.598, 201.618L447.223, 198.338L447.921, 197.649L448.419, 197.069L448.717, 196.595L448.817, 196.228L448.614, 195.79L447.958, 195.618L447.426, 195.588L447.426, 195.197L452.786, 195.197L452.786, 195.587L451.871, 195.721L451.223, 195.931L450.579, 196.37L449.676, 197.181L445.786, 201.041L450.551, 206.15L451.718, 207.354L452.442, 207.993L453.028, 208.256L453.755, 208.353L453.755, 208.743"/><path stroke="black" fill="none" stroke-width="1" d="M467.81, 202.056L467.691, 203.531L467.333, 204.861L466.737, 206.047L465.904, 207.087L464.887, 207.935L463.73, 208.541L462.433, 208.904L460.997, 209.025L459.647, 208.882L458.357, 208.462L457.195, 207.813L456.185, 206.947L455.458, 205.963L454.904, 204.759L454.55, 203.389L454.435, 201.978L454.552, 200.5L454.904, 199.162L455.49, 197.962L456.31, 196.9L457.314, 196.033L458.45, 195.412L459.719, 195.04L461.122, 194.915L462.558, 195.05L463.865, 195.454L465.043, 196.128L466.092, 197.072L466.843, 198.087L467.38, 199.257L467.702, 200.58L467.81, 202.056"/><path stroke="black" fill="none" stroke-width="1" d="M465.466, 202.04L465.297, 203.92L464.794, 205.712L464.41, 206.48L463.794, 207.212L462.576, 208.02L461.076, 208.29L459.704, 208.04L458.497, 207.29L457.782, 206.416L457.232, 205.165L456.88, 203.65L456.763, 202.009L456.857, 200.506L457.138, 199.088L457.594, 197.865L458.185, 196.978L459.528, 195.983L461.122, 195.65L462.508, 195.907L463.732, 196.68L464.491, 197.602L465.033, 198.802L465.358, 200.282L465.466, 202.04"/><path stroke="black" fill="none" stroke-width="1" d="M482.912, 195.587L481.881, 195.83L481.319, 196.212L481.072, 196.932L480.99, 198.212L480.99, 203.556L480.821, 205.49L480.319, 206.916L479.576, 207.839L478.568, 208.498L477.294, 208.893L475.756, 209.025L474.528, 208.946L473.471, 208.708L472.583, 208.313L471.866, 207.759L471.318, 207.034L470.927, 206.136L470.694, 205.065L470.616, 203.822L470.616, 197.431L470.537, 196.513L470.303, 196.009L469.763, 195.748L468.772, 195.587L468.772, 195.197L474.569, 195.197L474.569, 195.587L473.564, 195.748L473.022, 196.009L472.786, 196.522L472.709, 197.431L472.709, 203.978L472.833, 205.553L473.209, 206.681L473.714, 207.317L474.385, 207.771L475.222, 208.043L476.225, 208.134L477.309, 208.025L478.287, 207.697L479.079, 207.175L479.615, 206.509L479.967, 205.378L480.085, 203.728L480.085, 198.212L479.991, 196.94L479.709, 196.181L479.141, 195.783L478.162, 195.587L478.162, 195.197L482.912, 195.197L482.912, 195.587"/><path stroke="black" fill="none" stroke-width="1" d="M495.374, 198.68L494.89, 198.68L494.483, 197.292L493.952, 196.525L493.084, 196.173L491.64, 196.055L490.53, 196.055L490.53, 206.509L490.615, 207.435L490.874, 207.962L491.459, 208.225L492.499, 208.352L492.499, 208.743L486.515, 208.743L486.515, 208.353L487.552, 208.213L488.108, 207.947L488.355, 207.361L488.436, 206.29L488.436, 196.056L487.343, 196.056L485.904, 196.178L485.03, 196.54L484.506, 197.31L484.093, 198.68L483.593, 198.68L483.718, 195.197L495.249, 195.197L495.374, 198.68"/><path stroke="black" fill="none" stroke-width="1" d="M511.927, 198.9L511.798, 199.892L511.411, 200.806L510.786, 201.584L509.974, 202.166L508.453, 202.682L506.396, 202.853L504.974, 202.79L504.974, 206.509L505.063, 207.44L505.334, 207.978L505.902, 208.244L506.896, 208.353L506.896, 208.743L501.177, 208.743L501.177, 208.353L502.121, 208.197L502.614, 207.915L502.826, 207.338L502.896, 206.29L502.896, 197.43L502.821, 196.526L502.599, 196.025L502.102, 195.761L501.177, 195.587L501.177, 195.197L506.583, 195.197L507.969, 195.299L509.255, 195.603L510.332, 196.068L511.099, 196.681L511.719, 197.682L511.927, 198.9"/><path stroke="black" fill="none" stroke-width="1" d="M509.708, 199.025L509.485, 200.344L508.818, 201.287L507.705, 201.852L506.146, 202.04L504.974, 201.978L504.974, 196.65L505.114, 196.102L505.677, 195.962L507.47, 196.15L508.724, 196.712L509.462, 197.659L509.708, 199.025"/><path stroke="black" fill="none" stroke-width="1" d="M526.292, 202.056L526.173, 203.531L525.815, 204.861L525.22, 206.047L524.386, 207.087L523.369, 207.935L522.213, 208.541L520.916, 208.904L519.48, 209.025L518.139, 208.884L516.84, 208.462L515.678, 207.813L514.667, 206.947L513.94, 205.963L513.386, 204.759L513.032, 203.389L512.917, 201.978L513.034, 200.5L513.386, 199.162L513.972, 197.962L514.792, 196.9L515.796, 196.033L516.932, 195.412L518.201, 195.04L519.605, 194.915L521.04, 195.05L522.347, 195.454L523.525, 196.128L524.574, 197.072L525.325, 198.087L525.862, 199.257L526.184, 200.58L526.292, 202.056"/><path stroke="black" fill="none" stroke-width="1" d="M523.949, 202.04L523.78, 203.92L523.277, 205.712L522.892, 206.48L522.277, 207.212L521.058, 208.02L519.558, 208.29L518.187, 208.04L516.98, 207.29L516.265, 206.416L515.715, 205.165L515.363, 203.65L515.245, 202.009L515.339, 200.506L515.62, 199.088L516.076, 197.865L516.667, 196.978L518.01, 195.983L519.604, 195.65L520.99, 195.907L522.214, 196.68L522.973, 197.602L523.515, 198.802L523.84, 200.282L523.949, 202.04"/><path stroke="black" fill="none" stroke-width="1" d="M539.176, 205.29L538.27, 208.743L527.223, 208.743L527.223, 208.353L528.149, 208.213L528.676, 207.947L528.922, 207.417L529.004, 206.509L529.004, 197.431L528.922, 196.54L528.676, 196.025L528.155, 195.751L527.223, 195.587L527.223, 195.197L538.083, 195.197L538.145, 198.134L537.629, 198.134L537.288, 197.007L536.801, 196.368L535.956, 196.077L534.52, 195.978L531.754, 195.978L531.207, 196.118L531.082, 196.681L531.082, 201.212L534.238, 201.212L535.273, 201.127L535.879, 200.868L536.234, 200.3L536.489, 199.275L536.957, 199.275L536.957, 204.025L536.488, 204.025L536.237, 202.979L535.895, 202.4L535.285, 202.143L534.238, 202.056L531.082, 202.056L531.082, 207.103L531.124, 207.548L531.254, 207.759L531.89, 207.934L533.238, 207.993L533.785, 207.993L535.659, 207.865L536.91, 207.478L537.804, 206.667L538.613, 205.29L539.176, 205.29"/><path stroke="black" fill="none" stroke-width="1" d="M551.587, 198.68L551.103, 198.68L550.696, 197.292L550.165, 196.525L549.298, 196.173L547.853, 196.055L546.743, 196.055L546.743, 206.509L546.829, 207.435L547.087, 207.962L547.673, 208.225L548.712, 208.352L548.712, 208.743L542.728, 208.743L542.728, 208.353L543.765, 208.213L544.322, 207.947L544.568, 207.361L544.65, 206.29L544.65, 196.056L543.556, 196.056L542.117, 196.178L541.244, 196.54L540.719, 197.31L540.306, 198.68L539.806, 198.68L539.931, 195.197L551.462, 195.197L551.587, 198.68"/><path stroke="black" fill="none" stroke-width="1" d="M565.436, 208.743L562.139, 208.743L557.264, 202.447L556.124, 202.477L556.124, 206.509L556.206, 207.424L556.452, 207.947L556.995, 208.213L557.968, 208.353L557.968, 208.743L552.296, 208.743L552.296, 208.353L553.237, 208.206L553.749, 207.915L553.971, 207.33L554.046, 206.29L554.046, 197.43L553.971, 196.545L553.749, 196.04L553.236, 195.764L552.296, 195.587L552.296, 195.197L557.952, 195.197L559.314, 195.291L560.562, 195.572L561.598, 196.01L562.342, 196.572L562.94, 197.585L563.139, 198.806L562.877, 200.151L562.093, 201.15L560.99, 201.776L559.436, 202.212L563.655, 207.4L564.452, 208.118L565.436, 208.353L565.436, 208.743"/><path stroke="black" fill="none" stroke-width="1" d="M560.905, 198.759L560.616, 200.159L559.749, 201.04L558.327, 201.556L557.424, 201.663L556.123, 201.727L556.123, 196.697L556.343, 196.118L556.658, 196.002L557.171, 195.962L558.838, 196.135L559.999, 196.649L560.677, 197.523L560.905, 198.759"/><path stroke="black" fill="none" stroke-width="1" d="M579.961, 195.587L579.237, 195.752L578.633, 196.118L577.987, 196.799L577.149, 197.931L574.117, 202.541L574.117, 206.509L574.206, 207.47L574.477, 208.009L575.102, 208.253L576.227, 208.353L576.227, 208.743L569.961, 208.743L569.961, 208.353L571.086, 208.225L571.68, 207.963L571.937, 207.374L572.024, 206.29L572.024, 202.728L569.352, 198.806L568.647, 197.826L568.068, 197.054L567.616, 196.49L567.289, 196.134L566.717, 195.74L566.039, 195.587L566.039, 195.197L571.759, 195.197L571.759, 195.587L571.259, 195.618L570.543, 195.799L570.305, 196.212L570.665, 197.102L573.68, 201.65L576.617, 197.025L576.899, 196.275L576.586, 195.759L576.164, 195.647L575.492, 195.587L575.492, 195.197L579.962, 195.197L579.961, 195.587"/></svg>